/* XPM */
static char * C:\Users\Luiz\Desktop\Nox\xfwm4\bottom_left_inactive_xpm[] = {
"8 8 6 1",
" 	c None",
".	c #7A7A7E",
"+	c #9D9D9F",
"@	c #BEBFBF",
"#	c #CFD1D1",
"$	c #78787C",
".+@###+$",
"$+@####+",
"$+@#####",
"$+@#####",
" $+@####",
"  $+@@@@",
"   $++++",
"    $$$$"};
