/* XPM */
static char * C:\Users\Luiz\Desktop\Nox\xfwm4\close_pressed_xpm[] = {
"24 32 33 1",
" 	c None",
".	c #DBDDDD",
"+	c #ABABAE",
"@	c #75757A",
"#	c #DCDEDE",
"$	c #DDDFE0",
"%	c #DFDFE1",
"&	c #E1E1E2",
"*	c #E4E2E4",
"=	c #E5E4E6",
"-	c #E7E5E6",
";	c #E8E6E6",
">	c #E9E6E7",
",	c #E8E6E7",
"'	c #E9E8E8",
")	c #EAE8E7",
"!	c #E9E7E8",
"~	c #EAE8E8",
"{	c #E9E7E7",
"]	c #EAE7E7",
"^	c #E9E8E7",
"/	c #EAE7E8",
"(	c #EBEAE9",
"_	c #EBE9E9",
":	c #EBEAE8",
"<	c #EAEAE9",
"[	c #ECEBEA",
"}	c #EEEDEC",
"|	c #EEEFED",
"1	c #F0F1EE",
"2	c #F0F2F0",
"3	c #F1F3F2",
"4	c #F2F4F4",
"                        ",
"                        ",
"                        ",
"                        ",
"       ..........       ",
"      .++++++++++.      ",
"     .+@@@@@@@@@@+.     ",
"    .+@..........@+.    ",
"   .+@############@+.   ",
"  .+@$$$$$$$$$$$$$$@+.  ",
" .+@%%%%%%%%%%%%%%%%@+. ",
".+@&&&&@@&&&&&&@@&&& @+.",
".+@****@@@****@@@****@+.",
".+@=====@@@==@@@=====@+.",
".+@------@@@@@@------@+.",
".+@;>,;,,,@@@@,,,,;,,@+.",
".+@')''!~{@@@@]~'^{~/@+.",
".+@(_(_((@@@@@@_:__<(@+.",
".+@[[[[[@@@[[@@@[[[[[@+.",
".+@}}}}@@@}}}}@@@}}}}@+.",
".+@||||@@||||||@@||||@+.",
" .+@1111111111111111@+. ",
"  .+@22222222222222@+.  ",
"   .+@333333333333@+.   ",
"    .+@4444444444@+.    ",
"     .+@@@@@@@@@@+.     ",
"      .++++++++++.      ",
"       ..........       ",
"                        ",
"                        ",
"                        ",
"                        "};
