/* XPM */
static char * C:\Users\Luiz\Desktop\Nox\xfwm4\maximize_toggled_pressed_xpm[] = {
"24 32 34 1",
" 	c None",
".	c #DBDDDD",
"+	c #ABABAE",
"@	c #75757A",
"#	c #DCDEDE",
"$	c #DDDFE0",
"%	c #DFDFE1",
"&	c #E1E1E2",
"*	c #E4E2E4",
"=	c #E5E4E6",
"-	c #E7E5E6",
";	c #E8E6E6",
">	c #E9E6E7",
",	c #E8E6E7",
"'	c #E9E8E8",
")	c #EAE8E7",
"!	c #E9E7E8",
"~	c #EAE8E8",
"{	c #EAE7E7",
"]	c #EAE7E8",
"^	c #E9E8E7",
"/	c #E9E7E7",
"(	c #EBEAE9",
"_	c #EBE9E9",
":	c #EAE9E9",
"<	c #EAEAE9",
"[	c #EBEAE8",
"}	c #ECEBEA",
"|	c #EEEDEC",
"1	c #EEEFED",
"2	c #F0F1EE",
"3	c #F0F2F0",
"4	c #F1F3F2",
"5	c #F2F4F4",
"                        ",
"                        ",
"                        ",
"                        ",
"       ..........       ",
"      .++++++++++.      ",
"     .+@@@@@@@@@@+.     ",
"    .+@..........@+.    ",
"   .+@############@+.   ",
"  .+@$$$$$$$$$$$$$$@+.  ",
" .+@%%%%%%%%%%%%%%%%@+. ",
".+@&&&&&&&&&&&&&&&&& @+.",
".+@******************@+.",
".+@======@@@@@@======@+.",
".+@------@@@@@@------@+.",
".+@;>,;,,@;,;>@,,,;,,@+.",
".+@')''!~@{~]]@~'^/~]@+.",
".+@(_(_((@_::<@_[__<(@+.",
".+@}}}}}}@@@@@@}}}}}}@+.",
".+@||||||||||||||||||@+.",
".+@111111111111111111@+.",
" .+@2222222222222222@+. ",
"  .+@33333333333333@+.  ",
"   .+@444444444444@+.   ",
"    .+@5555555555@+.    ",
"     .+@@@@@@@@@@+.     ",
"      .++++++++++.      ",
"       ..........       ",
"                        ",
"                        ",
"                        ",
"                        "};
