/* XPM */
static char * C:\Users\Luiz\Desktop\Nox\xfwm4\right_inactive_xpm[] = {
"8 32 5 1",
" 	c None",
".	c #78787C",
"+	c #9D9D9F",
"@	c #BEBFBF",
"#	c #CFD1D1",
".+@##@+.",
".+@##@+.",
".+@##@+.",
".+@##@+.",
".+@##@+.",
".+@##@+.",
".+@##@+.",
".+@##@+.",
".+@##@+.",
".+@##@+.",
".+@##@+.",
".+@##@+.",
".+@##@+.",
".+@##@+.",
".+@##@+.",
".+@##@+.",
".+@##@+.",
".+@##@+.",
".+@##@+.",
".+@##@+.",
".+@##@+.",
".+@##@+.",
".+@##@+.",
".+@##@+.",
".+@##@+.",
".+@##@+.",
".+@##@+.",
".+@##@+.",
".+@##@+.",
".+@##@+.",
".+@##@+.",
".+@##@+."};
