/* XPM */
static char * C:\Users\Luiz\Desktop\Nox\xfwm4\shade_inactive_xpm[] = {
"24 32 26 1",
" 	c None",
".	c #DBDDDD",
"+	c #ABABAE",
"@	c #75757A",
"#	c #BEBFBF",
"$	c #BFC0C0",
"%	c #BFC1C2",
"&	c #C1C1C2",
"*	c #C2C2C3",
"=	c #C4C3C4",
"-	c #C5C4C6",
";	c #C6C5C6",
">	c #C7C6C6",
",	c #C8C6C6",
"'	c #C8C7C7",
")	c #C8C7C6",
"!	c #C8C6C7",
"~	c #C9C8C8",
"{	c #C8C8C8",
"]	c #CAC9C8",
"^	c #CBCACA",
"/	c #CBCCCA",
"(	c #CCCDCB",
"_	c #CCCECC",
":	c #CDCECE",
"<	c #CECFCF",
"                        ",
"                        ",
"                        ",
"                        ",
"       ..........       ",
"      .++++++++++.      ",
"     .+@@@@@@@@@@+.     ",
"    .+@##########@+.    ",
"   .+@$$$$$$$$$$$$@+.   ",
"  .+@%%%%%%%%%%%%%%@+.  ",
" .+@&&&&&&&&&&&&&&&&@+. ",
".+@***************** @+.",
".+@==================@+.",
".+@--------@@--------@+.",
".+@;;;;;;;@@@@;;;;;;;@+.",
".+@>,>>>>@@@@@@>>>>>>@+.",
".+@')''!@@@@@@@@'),'!@+.",
".+@~~~~@@@@@@@@@@~~{~@+.",
".+@]]]]@@@@@@@@@@]]]]@+.",
".+@^^^^^^^^^^^^^^^^^^@+.",
".+@//////////////////@+.",
" .+@((((((((((((((((@+. ",
"  .+@______________@+.  ",
"   .+@::::::::::::@+.   ",
"    .+@<<<<<<<<<<@+.    ",
"     .+@@@@@@@@@@+.     ",
"      .++++++++++.      ",
"       ..........       ",
"                        ",
"                        ",
"                        ",
"                        "};
