/* XPM */
static char * C:\Users\Luiz\Desktop\Nox\xfwm4\stick_prelight_xpm[] = {
"24 32 5 1",
" 	c None",
".	c #DBDDDD",
"+	c #ABABAE",
"@	c #75757A",
"#	c #B8C0F4",
"                        ",
"                        ",
"                        ",
"                        ",
"       ..........       ",
"      .++++++++++.      ",
"     .+@@@@@@@@@@+.     ",
"    .+@##########@+.    ",
"   .+@############@+.   ",
"  .+@##############@+.  ",
" .+@################@+. ",
".+@#####@@@@@@@@#####@+.",
".+@####@@@@@@@@@@####@+.",
".+@####@@######@@####@+.",
".+@####@########@####@+.",
".+@####@###@@###@####@+.",
".+@####@###@@###@####@+.",
".+@####@########@####@+.",
".+@####@@######@@####@+.",
".+@####@@@@@@@@@@####@+.",
".+@#####@@@@@@@@#####@+.",
" .+@################@+. ",
"  .+@##############@+.  ",
"   .+@############@+.   ",
"    .+@##########@+.    ",
"     .+@@@@@@@@@@+.     ",
"      .++++++++++.      ",
"       ..........       ",
"                        ",
"                        ",
"                        ",
"                        "};
