/* XPM */
static char * C:\Users\Luiz\Desktop\Nox\xfwm4\title_3_active_xpm[] = {
"32 32 117 2",
"  	c None",
". 	c #75757A",
"+ 	c #ABABAE",
"@ 	c #DBDDDD",
"# 	c #F4F6F6",
"$ 	c #F3F4F5",
"% 	c #F3F5F5",
"& 	c #F3F4F4",
"* 	c #F1F3F4",
"= 	c #F1F2F4",
"- 	c #F2F3F4",
"; 	c #F1F3F3",
"> 	c #F2F2F4",
", 	c #F2F2F3",
"' 	c #F2F3F3",
") 	c #F0F0F2",
"! 	c #F1F1F2",
"~ 	c #F1F0F2",
"{ 	c #F1F0F3",
"] 	c #F1F1F3",
"^ 	c #F0F1F2",
"/ 	c #F0F1F3",
"( 	c #F0F0F3",
"_ 	c #F0F0F1",
": 	c #EFEFF2",
"< 	c #F0EFF1",
"[ 	c #F0EFF2",
"} 	c #EFEFF1",
"| 	c #EFF0F2",
"1 	c #EFF0F1",
"2 	c #EFEEF0",
"3 	c #EFEDF0",
"4 	c #EEEEF0",
"5 	c #EFEEEF",
"6 	c #EFEDEF",
"7 	c #EEECEE",
"8 	c #EEECEF",
"9 	c #EEEDEF",
"0 	c #EEEDEE",
"a 	c #EFECEF",
"b 	c #EFEDEE",
"c 	c #EFECEE",
"d 	c #EEEBED",
"e 	c #EDEBED",
"f 	c #EDECEE",
"g 	c #EDECED",
"h 	c #EEEBEE",
"i 	c #EDEBEE",
"j 	c #EEECED",
"k 	c #EDEAEC",
"l 	c #ECEAEC",
"m 	c #ECEBEC",
"n 	c #ECEAEB",
"o 	c #EDEAEB",
"p 	c #ECEBEB",
"q 	c #EBE9E9",
"r 	c #EBE9EA",
"s 	c #EAE9E9",
"t 	c #EBE8E9",
"u 	c #EBE8EA",
"v 	c #EAE9EA",
"w 	c #EAE8E7",
"x 	c #E9E8E8",
"y 	c #EAE7E7",
"z 	c #E9E7E8",
"A 	c #EAE8E8",
"B 	c #EAE7E8",
"C 	c #E9E8E7",
"D 	c #E9E7E7",
"E 	c #E8E7E6",
"F 	c #E9E7E6",
"G 	c #E8E6E6",
"H 	c #E8E7E7",
"I 	c #E8E6E7",
"J 	c #E7E6E5",
"K 	c #E8E6E5",
"L 	c #E7E7E6",
"M 	c #E7E7E5",
"N 	c #E7E6E6",
"O 	c #E6E6E4",
"P 	c #E6E5E4",
"Q 	c #E5E6E4",
"R 	c #E6E5E3",
"S 	c #E6E6E3",
"T 	c #E5E5E4",
"U 	c #E5E4E2",
"V 	c #E5E4E3",
"W 	c #E4E4E2",
"X 	c #E4E5E2",
"Y 	c #E4E5E3",
"Z 	c #E5E5E2",
"` 	c #E4E4E3",
" .	c #E5E5E3",
"..	c #E2E4E1",
"+.	c #E3E3E1",
"@.	c #E2E3E1",
"#.	c #E2E3E2",
"$.	c #E3E3E2",
"%.	c #E3E4E1",
"&.	c #E2E4E2",
"*.	c #E3E4E2",
"=.	c #E0E2E1",
"-.	c #E0E2E0",
";.	c #E1E2E0",
">.	c #E0E3E0",
",.	c #DFE1DF",
"'.	c #DFE1DE",
").	c #DEE1DF",
"!.	c #DFE0DF",
"~.	c #DEE0DF",
"{.	c #DEE0DE",
"].	c #DDDFDF",
"^.	c #DEDFDF",
"/.	c #DEDFDE",
"(.	c #DDDFDE",
"_.	c #DDE0DE",
":.	c #DDE0DF",
". . . . . . . . . . . . . . . . . . . . . . . . . . . . . . . . ",
"+ + + + + + + + + + + + + + + + + + + + + + + + + + + + + + + + ",
"@ @ @ @ @ @ @ @ @ @ @ @ @ @ @ @ @ @ @ @ @ @ @ @ @ @ @ @ @ @ @ @ ",
"# # # # # # # # # # # # # # # # # # # # # # # # # # # # # # # # ",
"@ @ @ @ @ @ @ @ @ @ @ @ @ @ @ @ @ @ @ @ @ @ @ @ @ @ @ @ @ @ @ @ ",
"+ + + + + + + + + + + + + + + + + + + + + + + + + + + + + + + + ",
". . . . . . . . . . . . . . . . . . . . . . . . . . . . . . . . ",
"$ % % $ $ % $ $ $ % $ % $ $ % $ % $ % $ % % & % % $ $ % % $ % % ",
"* = - ; > * , - - * ; - = - , = ' = - = = * > * - > > > - - = , ",
") ! ~ ) { ] ^ ] / ! / ] ^ / ! ^ / ! ! ^ ^ ! / / ( / ^ / / ^ / ^ ",
"_ : < [ < } | < < < } } ) 1 _ _ } [ < _ _ [ : } : _ 1 < _ } [ } ",
"2 3 2 4 5 2 2 2 2 3 2 2 2 5 2 5 2 2 2 2 2 2 5 4 2 4 2 2 2 6 2 2 ",
"7 8 9 0 0 0 9 a 9 0 9 b 7 0 0 0 8 c 8 7 9 9 8 0 0 0 9 0 0 8 7 0 ",
"d e f d e d d e e d e d g h e i h f g e g i g i j 7 g h g d j d ",
"k l m n n l o l n o l l l o l n l n n p n n l m l l p l l m p l ",
"q r s r q q t s u q v r q q v r s q q q r r q q r r t r r t q r ",
"w x y y w z A z x B C z D C x C x x A A B B B A B x A A x z x B ",
"E F E D F D F E D D G D E H H E D E D H I E E H F E G D D E E H ",
"J K J J J L J M J J J J J M J J J J G J J J L J J N J N J M J J ",
"O O P Q O P Q O P P O P Q P Q P O R O S P T T P P Q O O O P O Q ",
"U V W X Y Y Z W X Z W ` `  .` `  .Y Y ` X ` W ` ` Y Y Y Y  .` Z ",
"....+.@.@...#.@.#.#.+.+.@.$.#.....+.%.%.+.%.#.@.@.&.*.+.@...*.#.",
"=.-.;.;.;.;.-.;.;.=.-.;.;.>.-.-.;.;.-.-.-.-.;.-.;.;.-.-.;.-.-.-.",
",.'.,.).!.).!.,.).,.).,.,.,.~.!.,.,.,.,.,.,.!.,.!.,.,.,.,.,.,.,.",
"{.].~.].^./.{.].(.].{._.:./.(.(._./.^.(.].]._.^./.{.{.(.{./.:.:.",
". . . . . . . . . . . . . . . . . . . . . . . . . . . . . . . . ",
"+ + + + + + + + + + + + + + + + + + + + + + + + + + + + + + + + ",
"@ @ @ @ @ @ @ @ @ @ @ @ @ @ @ @ @ @ @ @ @ @ @ @ @ @ @ @ @ @ @ @ ",
"# # # # # # # # # # # # # # # # # # # # # # # # # # # # # # # # ",
"@ @ @ @ @ @ @ @ @ @ @ @ @ @ @ @ @ @ @ @ @ @ @ @ @ @ @ @ @ @ @ @ ",
"+ + + + + + + + + + + + + + + + + + + + + + + + + + + + + + + + ",
". . . . . . . . . . . . . . . . . . . . . . . . . . . . . . . . "};
