/* XPM */
static char * C:\Users\Luiz\Desktop\Nox\xfwm4\title_4_active_xpm[] = {
"32 32 95 2",
"  	c None",
". 	c #75757A",
"+ 	c #ABABAE",
"@ 	c #DBDDDD",
"# 	c #F4F6F6",
"$ 	c #F3F4F5",
"% 	c #F3F5F5",
"& 	c #F2F3F4",
"* 	c #F1F3F4",
"= 	c #F1F3F3",
"- 	c #F2F3F3",
"; 	c #F1F2F4",
"> 	c #F2F2F3",
", 	c #F1F1F3",
"' 	c #F1F1F2",
") 	c #F0F1F2",
"! 	c #F0F0F3",
"~ 	c #F0F1F3",
"{ 	c #F0F0F2",
"] 	c #F0EFF1",
"^ 	c #EFEFF2",
"/ 	c #EFEFF1",
"( 	c #F0EFF2",
"_ 	c #EFF0F1",
": 	c #EFEEEF",
"< 	c #EFEDF0",
"[ 	c #EFEEF0",
"} 	c #EEEEF0",
"| 	c #EEECEF",
"1 	c #EFEDEE",
"2 	c #EEEDEF",
"3 	c #EEEDEE",
"4 	c #EEECEE",
"5 	c #EEECED",
"6 	c #EDEBEE",
"7 	c #EDEBED",
"8 	c #EEEBEE",
"9 	c #EDECEE",
"0 	c #EEEBED",
"a 	c #EDECED",
"b 	c #EDEAEC",
"c 	c #ECEAEB",
"d 	c #ECEAEC",
"e 	c #EDEBEB",
"f 	c #ECEBEC",
"g 	c #EDEAEB",
"h 	c #EBE9EA",
"i 	c #EBE9E9",
"j 	c #EAE9EA",
"k 	c #EAE9E9",
"l 	c #E9E8E8",
"m 	c #E9E8E7",
"n 	c #EAE7E8",
"o 	c #EAE7E7",
"p 	c #E9E7E8",
"q 	c #EAE8E8",
"r 	c #EAE8E7",
"s 	c #E8E7E6",
"t 	c #E8E7E7",
"u 	c #E9E7E7",
"v 	c #E9E7E6",
"w 	c #E8E6E7",
"x 	c #E7E6E5",
"y 	c #E7E7E5",
"z 	c #E7E7E6",
"A 	c #E7E6E6",
"B 	c #E6E5E4",
"C 	c #E5E5E4",
"D 	c #E6E6E4",
"E 	c #E6E5E3",
"F 	c #E4E4E2",
"G 	c #E4E5E3",
"H 	c #E4E4E3",
"I 	c #E4E5E2",
"J 	c #E2E3E1",
"K 	c #E2E4E1",
"L 	c #E2E3E2",
"M 	c #E3E4E2",
"N 	c #E2E4E2",
"O 	c #E1E2E0",
"P 	c #E0E2E0",
"Q 	c #E0E2E1",
"R 	c #E1E3E0",
"S 	c #DEE0DF",
"T 	c #DFE0DF",
"U 	c #DEE1DF",
"V 	c #DFE1DF",
"W 	c #DEE1DE",
"X 	c #DFE1DE",
"Y 	c #DEE0DE",
"Z 	c #DEDFDE",
"` 	c #DDE0DE",
" .	c #DEDFDF",
"..	c #DDE0DF",
"+.	c #DDDFDE",
". . . . . . . . . . . . . . . . . . . . . . . . . . . . . . . . ",
"+ + + + + + + + + + + + + + + + + + + + + + + + + + + + + + + + ",
"@ @ @ @ @ @ @ @ @ @ @ @ @ @ @ @ @ @ @ @ @ @ @ @ @ @ @ @ @ @ @ @ ",
"# # # # # # # # # # # # # # # # # # # # # # # # # # # # # # # # ",
"@ @ @ @ @ @ @ @ @ @ @ @ # # # # # # # # # # # # # # # # # # # # ",
"+ + + + + + + + + + + @ @ # # # # # # # # # # # # # # # # # # # ",
". . . . . . . . . . . . + @ # # # # # # # # # # # # # # # # # # ",
"$ % $ $ % % % $ $ $ % % . + @ # # # # # # # # # # # # # # # # # ",
"& * & & = - - & ; - * * > . + @ # # # # # # # # # # # # # # # # ",
", ' ) ! ~ , { ) , , ' ~ , ! . + @ # # # # # # # # # # # # # # # ",
"] ] ] ] ] ] ^ ] ] / ] ^ ( _ ] . @ # # # # # # # # # # # # # # # ",
": < < [ [ [ [ [ } } < [ } [ [ . + @ # # # # # # # # # # # # # # ",
"| | 1 | 2 | | 3 4 3 | 2 2 1 2 . + @ # # # # # # # # # # # # # # ",
"5 6 7 7 7 8 6 9 5 5 4 7 0 a 0 . + @ # # # # # # # # # # # # # # ",
"b c c d e c f g g c c c d c d . + @ # # # # # # # # # # # # # # ",
"h h i i i h h h j h k h i h i . + @ # # # # # # # # # # # # # # ",
"l m n o p l q p l q n r r p o . + @ # # # # # # # # # # # # # # ",
"s t t u s v v s v w t s s u u . + @ # # # # # # # # # # # # # # ",
"x x x x y z A y x x A x x x x . + @ # # # # # # # # # # # # # # ",
"B C D B D D B D D B E B D D C . + @ # # # # # # # # # # # # # # ",
"F G H H H F G F G G G I G F I . + @ # # # # # # # # # # # # # # ",
"J K J J L L J K J J J M N J J . + @ # # # # # # # # # # # # # # ",
"O P P P Q P O P P Q P O R P . + @ # # # # # # # # # # # # # # # ",
"S T U V V S U V W X V U T . + @ # # # # # # # # # # # # # # # # ",
"Y Y Z `  ...` ..Y +.Y Z . + @ # # # # # # # # # # # # # # # # # ",
". . . . . . . . . . . . + @ # # # # # # # # # # # # # # # # # # ",
"+ + + + + + + + + + + @ @ # # # # # # # # # # # # # # # # # # # ",
"@ @ @ @ @ @ @ @ @ @ @ @ # # # # # # # # # # # # # # # # # # # # ",
"# # # # # # # # # # # # # # # # # # # # # # # # # # # # # # # # ",
"@ @ @ @ @ @ @ @ @ @ @ @ @ @ @ @ @ @ @ @ @ @ @ @ @ @ @ @ @ @ @ @ ",
"+ + + + + + + + + + + + + + + + + + + + + + + + + + + + + + + + ",
". . . . . . . . . . . . . . . . . . . . . . . . . . . . . . . . "};
