/* XPM */
static char * C:\Users\Luiz\Desktop\Nox\xfwm4\title_2_active_xpm[] = {
"32 32 94 2",
"  	c None",
". 	c #75757A",
"+ 	c #ABABAE",
"@ 	c #DBDDDD",
"# 	c #F4F6F6",
"$ 	c #F3F4F5",
"% 	c #F3F5F5",
"& 	c #F2F3F4",
"* 	c #F2F2F3",
"= 	c #F2F2F4",
"- 	c #F1F3F3",
"; 	c #F2F3F3",
"> 	c #F1F3F4",
", 	c #F1F2F4",
"' 	c #F0F1F2",
") 	c #F1F1F3",
"! 	c #F0F1F3",
"~ 	c #F0F0F3",
"{ 	c #F1F0F2",
"] 	c #F0EFF1",
"^ 	c #EFEFF1",
"/ 	c #EFF0F1",
"( 	c #EFEEF0",
"_ 	c #EEEEEF",
": 	c #EEEEF0",
"< 	c #EFEDF0",
"[ 	c #EEEDEF",
"} 	c #EEEDEE",
"| 	c #EEECEF",
"1 	c #EFEDEF",
"2 	c #EDECED",
"3 	c #EEECED",
"4 	c #EEEBED",
"5 	c #EDEBED",
"6 	c #EDEBEE",
"7 	c #EEEBEE",
"8 	c #EDEAEC",
"9 	c #ECEAEC",
"0 	c #ECEAEB",
"a 	c #EDEAEB",
"b 	c #ECEBEB",
"c 	c #EBE9E9",
"d 	c #EBE9EA",
"e 	c #EBE8E9",
"f 	c #EAE9EA",
"g 	c #EAE9E9",
"h 	c #EBE8EA",
"i 	c #E9E8E8",
"j 	c #EAE7E8",
"k 	c #E9E7E7",
"l 	c #EAE8E7",
"m 	c #E9E7E8",
"n 	c #EAE7E7",
"o 	c #EAE8E8",
"p 	c #E8E7E6",
"q 	c #E8E6E6",
"r 	c #E9E7E6",
"s 	c #E8E7E7",
"t 	c #E8E6E7",
"u 	c #E9E6E6",
"v 	c #E7E6E5",
"w 	c #E7E7E6",
"x 	c #E7E7E5",
"y 	c #E8E6E5",
"z 	c #E6E5E4",
"A 	c #E6E6E4",
"B 	c #E5E5E4",
"C 	c #E5E6E3",
"D 	c #E4E5E3",
"E 	c #E4E4E3",
"F 	c #E5E4E2",
"G 	c #E4E5E2",
"H 	c #E5E5E3",
"I 	c #E2E3E2",
"J 	c #E2E3E1",
"K 	c #E2E4E1",
"L 	c #E3E4E1",
"M 	c #E3E3E1",
"N 	c #E3E3E2",
"O 	c #E2E4E2",
"P 	c #E0E2E0",
"Q 	c #E1E2E0",
"R 	c #E0E2E1",
"S 	c #E1E2E1",
"T 	c #DFE1DF",
"U 	c #DFE1DE",
"V 	c #DEE0DF",
"W 	c #DEE1DF",
"X 	c #DDE0DF",
"Y 	c #DEDFDF",
"Z 	c #DEE0DE",
"` 	c #DEDFDE",
" .	c #DDDFDE",
"..	c #DDDFDF",
". . . . . . . . . . . . . . . . . . . . . . . . . . . . . . . . ",
"+ + + + + + + + + + + + + + + + + + + + + + + + + + + + + + + + ",
"@ @ @ @ @ @ @ @ @ @ @ @ @ @ @ @ @ @ @ @ @ @ @ @ @ @ @ @ @ @ @ @ ",
"# # # # # # # # # # # # # # # # # # # # # # # # # # # # # # # # ",
"# # # # # # # # # # # # # # # # # # # # # @ @ @ @ @ @ @ @ @ @ @ ",
"# # # # # # # # # # # # # # # # # # # @ @ + + + + + + + + + + + ",
"# # # # # # # # # # # # # # # # # # @ + . . . . . . . . . . . . ",
"# # # # # # # # # # # # # # # # # @ + . $ $ $ % % % % $ $ $ % % ",
"# # # # # # # # # # # # # # # # @ + . & * = - ; > ; ; ; > = = , ",
"# # # # # # # # # # # # # # @ @ + . ' ) ' ! ' ~ ! ) ) { ! ) ! ' ",
"# # # # # # # # # # # # # # @ + . ] ] ] ] ] ] ^ ] ] ^ ] ^ / ^ / ",
"# # # # # # # # # # # # # # @ + . ( ( _ ( ( : ( ( ( ( : : _ < ( ",
"# # # # # # # # # # # # # # @ + . [ } | } 1 [ } } | [ [ } [ [ [ ",
"# # # # # # # # # # # # # # @ + . 2 3 3 4 5 5 6 5 2 4 3 6 7 6 2 ",
"# # # # # # # # # # # # # # @ + . 8 9 8 9 0 0 a 0 b 9 9 9 0 9 0 ",
"# # # # # # # # # # # # # # @ + . c d c d d d e f d g c h d c d ",
"# # # # # # # # # # # # # # @ + . i j k l m j n k k j o o o o o ",
"# # # # # # # # # # # # # # @ + . p q r r s p r s s k r s t u s ",
"# # # # # # # # # # # # # # @ + . v v v v w v x y v v v x v x v ",
"# # # # # # # # # # # # # # @ + . z A B A A z A A A z A z z A C ",
"# # # # # # # # # # # # # # @ + . D D E D F E G F H D E F D E E ",
"# # # # # # # # # # # # # # @ + . I J K L K I L J M N O M I J M ",
"# # # # # # # # # # # # # # # @ + . P P P Q Q P P P Q P P R S Q ",
"# # # # # # # # # # # # # # # # @ + . T T T T U V T U T T W T T ",
"# # # # # # # # # # # # # # # # # @ + . X Y Z V ` ` V X  ...V Y ",
"# # # # # # # # # # # # # # # # # # @ + . . . . . . . . . . . . ",
"# # # # # # # # # # # # # # # # # # # @ @ + + + + + + + + + + + ",
"# # # # # # # # # # # # # # # # # # # # @ @ @ @ @ @ @ @ @ @ @ @ ",
"# # # # # # # # # # # # # # # # # # # # # # # # # # # # # # # # ",
"@ @ @ @ @ @ @ @ @ @ @ @ @ @ @ @ @ @ @ @ @ @ @ @ @ @ @ @ @ @ @ @ ",
"+ + + + + + + + + + + + + + + + + + + + + + + + + + + + + + + + ",
". . . . . . . . . . . . . . . . . . . . . . . . . . . . . . . . "};
