/* XPM */
static char * C:\Users\Luiz\Desktop\Nox\xfwm4\title_3_inactive_xpm[] = {
"32 32 70 1",
" 	c None",
".	c #78787C",
"+	c #9D9D9F",
"@	c #BEBFBF",
"#	c #CFD1D1",
"$	c #CECFD0",
"%	c #CED0D0",
"&	c #CECFCF",
"*	c #CDCECF",
"=	c #CECECF",
"-	c #CDCECE",
";	c #CECECE",
">	c #CCCCCE",
",	c #CDCDCE",
"'	c #CDCCCE",
")	c #CCCDCE",
"!	c #CCCCCD",
"~	c #CCCBCC",
"{	c #CCCACC",
"]	c #CBCBCC",
"^	c #CBCACB",
"/	c #CBCACC",
"(	c #CCCACB",
"_	c #CBC9CA",
":	c #CAC9CA",
"<	c #CACACB",
"[	c #CACACA",
"}	c #CBC9CB",
"|	c #CAC9CB",
"1	c #CBCACA",
"2	c #CAC8CA",
"3	c #CAC8C9",
"4	c #CAC9C9",
"5	c #C9C8C8",
"6	c #C8C8C8",
"7	c #C9C7C8",
"8	c #C8C7C6",
"9	c #C8C7C7",
"0	c #C8C6C6",
"a	c #C8C6C7",
"b	c #C7C6C6",
"c	c #C6C6C5",
"d	c #C7C6C5",
"e	c #C6C6C6",
"f	c #C6C6C4",
"g	c #C6C5C4",
"h	c #C5C6C4",
"i	c #C5C5C4",
"j	c #C5C4C3",
"k	c #C5C4C4",
"l	c #C4C4C3",
"m	c #C4C5C3",
"n	c #C4C5C4",
"o	c #C5C5C3",
"p	c #C4C4C4",
"q	c #C3C4C2",
"r	c #C4C4C2",
"s	c #C3C4C3",
"t	c #C2C3C2",
"u	c #C2C4C2",
"v	c #C1C2C1",
"w	c #C1C2C0",
"x	c #C0C2C1",
"y	c #C0C2C0",
"z	c #BFC1C1",
"A	c #C0C1C1",
"B	c #C0C1C0",
"C	c #BFC1C0",
"D	c #BFC2C0",
"E	c #BFC2C1",
"................................",
"++++++++++++++++++++++++++++++++",
"@@@@@@@@@@@@@@@@@@@@@@@@@@@@@@@@",
"################################",
"@@@@@@@@@@@@@@@@@@@@@@@@@@@@@@@@",
"++++++++++++++++++++++++++++++++",
"................................",
"$%%$$%$$$%$%$$%$%$%$%%&%%$$%%$%%",
"**=-=*;==*-=*=;*;*=***=*======*;",
">,'>',),),),)),)),,)),))>)))))))",
"!>!>!!>!!!!!>!!!!>!!!>>!>!!!!!>!",
"~{~]~~~~~{~~~~~~~~~~~~~]~]~~~{~~",
"^//^^^/{/^/(^^^^/(/^///^^^/^^/^^",
"_:<_:__::_:_[}:|}<[:[|[|1^[}[_1_",
"22:33232332223232334332:22422:42",
"55655576756555656555555555755755",
"89008a9a9a8a08989999aaa9a9999a9a",
"b0b0000b00b0bbbb0b0bbbbb0bb00bbb",
"cdccceccccccccccccbccceccececccc",
"ffghfghfggfghghgfgffgiigghfffgfh",
"jklmnnolmolppippinnpmplppnnnnipo",
"qqrqqqsqssrrqlsqqrrrrrsqqslrqqls",
"tttttttttttttutttttttttttttttttt",
"vwvxvxvvxvxvvvxvvvvvvvvvvvvvvvvv",
"yzxzAByzCzyDEBCCDBACzzDAByyCyBEE",
"................................",
"++++++++++++++++++++++++++++++++",
"@@@@@@@@@@@@@@@@@@@@@@@@@@@@@@@@",
"################################",
"@@@@@@@@@@@@@@@@@@@@@@@@@@@@@@@@",
"++++++++++++++++++++++++++++++++",
"................................"};
