/* XPM */
static char * C:\Users\Luiz\Desktop\Nox\xfwm4\title_2_inactive_xpm[] = {
"32 32 63 1",
" 	c None",
".	c #78787C",
"+	c #9D9D9F",
"@	c #BEBFBF",
"#	c #CFD1D1",
"$	c #CECFD0",
"%	c #CED0D0",
"&	c #CECECF",
"*	c #CECECE",
"=	c #CDCECE",
"-	c #CDCECF",
";	c #CCCDCE",
">	c #CDCDCE",
",	c #CCCCCE",
"'	c #CDCCCE",
")	c #CCCCCD",
"!	c #CCCBCC",
"~	c #CBCBCC",
"{	c #CCCACC",
"]	c #CBCACC",
"^	c #CBCACB",
"/	c #CACACA",
"(	c #CBCACA",
"_	c #CBC9CA",
":	c #CAC9CA",
"<	c #CAC9CB",
"[	c #CBC9CB",
"}	c #CAC8CA",
"|	c #CAC8C9",
"1	c #CAC9C9",
"2	c #C9C8C8",
"3	c #C9C7C8",
"4	c #C8C8C8",
"5	c #C8C7C7",
"6	c #C8C6C7",
"7	c #C8C6C6",
"8	c #C8C7C6",
"9	c #C7C6C6",
"0	c #C6C6C5",
"a	c #C6C6C6",
"b	c #C7C6C5",
"c	c #C6C5C4",
"d	c #C6C6C4",
"e	c #C5C5C4",
"f	c #C5C6C4",
"g	c #C4C5C4",
"h	c #C4C4C4",
"i	c #C5C4C3",
"j	c #C4C5C3",
"k	c #C3C4C3",
"l	c #C3C4C2",
"m	c #C4C4C2",
"n	c #C4C4C3",
"o	c #C2C3C2",
"p	c #C1C2C1",
"q	c #C1C2C0",
"r	c #C0C2C1",
"s	c #BFC2C1",
"t	c #C0C1C1",
"u	c #C0C2C0",
"v	c #C0C1C0",
"w	c #BFC1C0",
"x	c #BFC1C1",
"................................",
"++++++++++++++++++++++++++++++++",
"@@@@@@@@@@@@@@@@@@@@@@@@@@@@@@@@",
"################################",
"#####################@@@@@@@@@@@",
"###################@@+++++++++++",
"##################@+............",
"#################@+.$$$%%%%$$$%%",
"################@+.&*&=*-***-&&-",
"##############@@+.;>;;;,;>>';>;;",
"##############@+.)))))))))))))))",
"##############@+.!!~!!~!!!!~~~{!",
"##############@+.]^]^{]^^]]]^]]]",
"##############@+./((_::<:/_(<[</",
"##############@+.}}}}||||1}}}|}|",
"##############@+.222222342423222",
"##############@+.567866777655555",
"##############@+.997799799779979",
"##############@+.0000a00b0000000",
"##############@+.cdeddcdddcdccdf",
"##############@+.gghgihjieghighh",
"##############@+.kllmlkmlmnkmklm",
"###############@+.oooooooooooooo",
"################@+.ppppqrpqpprpp",
"#################@+.sturvvrswxrt",
"##################@+............",
"###################@@+++++++++++",
"####################@@@@@@@@@@@@",
"################################",
"@@@@@@@@@@@@@@@@@@@@@@@@@@@@@@@@",
"++++++++++++++++++++++++++++++++",
"................................"};
