/* XPM */
static char * C:\Users\Luiz\Desktop\Nox\xfwm4\title_4_inactive_xpm[] = {
"32 32 60 1",
" 	c None",
".	c #78787C",
"+	c #9D9D9F",
"@	c #BEBFBF",
"#	c #CFD1D1",
"$	c #CECFD0",
"%	c #CED0D0",
"&	c #CECECF",
"*	c #CDCECF",
"=	c #CDCECE",
"-	c #CECECE",
";	c #CDCDCE",
">	c #CCCDCE",
",	c #CCCCCE",
"'	c #CCCCCD",
")	c #CCCBCC",
"!	c #CCCACC",
"~	c #CBCBCC",
"{	c #CBCACC",
"]	c #CCCACB",
"^	c #CBCACB",
"/	c #CBCACA",
"(	c #CAC9CB",
"_	c #CAC9CA",
":	c #CBC9CB",
"<	c #CACACB",
"[	c #CBC9CA",
"}	c #CACACA",
"|	c #CAC8CA",
"1	c #CAC8C9",
"2	c #CAC9C9",
"3	c #C9C8C8",
"4	c #C8C8C8",
"5	c #C8C7C7",
"6	c #C8C7C6",
"7	c #C8C6C7",
"8	c #C8C6C6",
"9	c #C7C6C6",
"0	c #C6C6C5",
"a	c #C6C6C6",
"b	c #C6C5C4",
"c	c #C5C5C4",
"d	c #C6C6C4",
"e	c #C4C4C3",
"f	c #C4C5C4",
"g	c #C4C4C4",
"h	c #C4C5C3",
"i	c #C3C4C2",
"j	c #C3C4C3",
"k	c #C2C3C2",
"l	c #C2C4C2",
"m	c #C0C2C1",
"n	c #C1C2C1",
"o	c #C0C2C0",
"p	c #C1C2C0",
"q	c #C0C1C0",
"r	c #BFC2C0",
"s	c #C0C1C1",
"t	c #BFC2C1",
"u	c #BFC1C0",
"................................",
"++++++++++++++++++++++++++++++++",
"@@@@@@@@@@@@@@@@@@@@@@@@@@@@@@@@",
"################################",
"@@@@@@@@@@@@####################",
"+++++++++++@@###################",
"............+@##################",
"$%$$%%%$$$%%.+@#################",
"&*&&=--&*-**-.+@################",
";;>,>;,>;;;>;,.+@###############",
"'''''','''',,''.@###############",
")!!)))))~~!)~)).+@##############",
"{{]{{{{^^^{{{]{.+@##############",
"/(___:(<//^_[}[.+@##############",
"|11|21_11111|1|.+@##############",
"333333334343333.+@##############",
"567875575576678.+@##############",
"999898898999988.+@##############",
"00000aa000a0000.+@##############",
"bcdbddbddbbbddc.+@##############",
"efgggefefffhfeh.+@##############",
"iiiijjiiiiiejii.+@##############",
"kkkkkkkkkkkklk.+@###############",
"mnmnnmmnopnmn.+@################",
"ooqrstrtouoq.+@#################",
"............+@##################",
"+++++++++++@@###################",
"@@@@@@@@@@@@####################",
"################################",
"@@@@@@@@@@@@@@@@@@@@@@@@@@@@@@@@",
"++++++++++++++++++++++++++++++++",
"................................"};
