/* XPM */
static char * C:\Users\Luiz\Desktop\Nox\xfwm4\top_left_active_xpm[] = {
"8 32 6 1",
" 	c None",
".	c #75757A",
"+	c #ABABAE",
"@	c #DBDDDD",
"#	c #F4F6F6",
"$	c #78787D",
"    ....",
"   .++++",
"  .+@@@@",
" .+#####",
".+@#####",
".+@#####",
".+@#####",
"$+@#####",
".+@#####",
".+@#####",
".+@#####",
".+@#####",
".+@#####",
".+@#####",
".+@#####",
".+@#####",
".+@#####",
".+@#####",
".+@#####",
".+@#####",
".+@#####",
".+@#####",
".+@#####",
".+@#####",
".+@#####",
".+@#####",
".+@#####",
".+@#####",
".+@#####",
".+@#####",
".+@####+",
".+@###+."};
